# xmcd
#
# Track frame offsets:
#	150
#	17921
#	37305
#	66824
#	77883
#	90620
#	103684
#	112928
#	122097
#	137038
#	160879
#	183504
#	188550
#	198759
#	210816
#	220309
#	231149
#	243831
#	250643
#
# Disc length: 3479 seconds
#
# Revision: 1
# Processed by: cddbd v1.5.2PL0 Copyright (c) Steve Scherf et al.
# Submitted via: audiograbber 1.83.01
#
DISCID=fd0d9513
DTITLE=Doug Sahm, Freddy Fender, Floyd Tillman - Crazy Cajun Cosmic Cowboys
DYEAR=1999
DGENRE=Country
TTITLE0=Freddy Fender and Doug Sahm - Wasted days and Wasted Nights
TTITLE1=Freddy Fender and Doug Sahm - Big Boss Man
TTITLE2=Freddy Fender and Doug Sahm - '50s Medley
TTITLE3=Freddy Fender - The Chokin' Kind
TTITLE4=Freddy Fender - Tell It Like It Is
TTITLE5=Freddy Fender - Since I Met You Baby
TTITLE6=Freddy Fender - Please Mr. Sandman
TTITLE7=Freddy Fender - Breaking Up Is Hard To Do
TTITLE8=Freddy Fender - Graduation Night
TTITLE9=Doug Sahm and Freddy Fender - Hi Heel Sneakers
TTITLE10=Doug Sahm and Freddy Fender - Before The Next Teardrop Falls
TTITLE11=Doug Sahm and Freddy Fender - Wasted days And Wasted Nights
TTITLE12=Doug Sahm - Philadelphia Lawyer
TTITLE13=Doug Sahm - She Digs My Love
TTITLE14=Floyd Tillman - Slippin' Around
TTITLE15=Floyd Tillman - It Makes No Difference Now
TTITLE16=Floyd Tillman - I Love You SO Much It Hurts
TTITLE17=Floyd Tillman - They Took The Stars Out Of Heaven
TTITLE18=Floyd Tillman - Walkin' The Floor Over You
EXTD=YEAR: 1999
EXTT0=
EXTT1=
EXTT2=
EXTT3=
EXTT4=
EXTT5=
EXTT6=
EXTT7=
EXTT8=
EXTT9=
EXTT10=
EXTT11=
EXTT12=
EXTT13=
EXTT14=
EXTT15=
EXTT16=
EXTT17=
EXTT18=
PLAYORDER=
